<svg width="100" height="72" viewBox="0 0 100 72" fill="none" xmlns="http://www.w3.org/2000/svg">
<path d="M62.2463 22.7832V30.4942H68.1582V34.7029H62.2463V54.4512C62.2463 55.7265 62.5097 56.688 63.0365 57.3355C63.5633 57.9633 64.4608 58.2772 65.729 58.2772C66.3534 58.2772 67.2119 58.1595 68.3045 57.9241V62.3388C66.8802 62.7312 65.4949 62.9274 64.1487 62.9274C61.7293 62.9274 59.905 62.1916 58.6758 60.72C57.4467 59.2485 56.8321 57.1589 56.8321 54.4512V34.7029H51.0666V30.4942H56.8321V22.7832H62.2463Z" fill="black"/>
<path d="M87.6496 62.9274C83.3572 62.9274 79.8647 61.5147 77.1722 58.6893C74.4797 55.8443 73.1334 52.0476 73.1334 47.2994V46.2988C73.1334 43.1398 73.7285 40.3242 74.9187 37.852C76.1284 35.3602 77.8063 33.4177 79.9525 32.0246C82.1182 30.6119 84.4595 29.9056 86.9764 29.9056C91.0933 29.9056 94.293 31.2692 96.5758 33.9965C98.8586 36.7238 100 40.6283 100 45.7101V47.9763H78.5477C78.6258 51.1157 79.533 53.6566 81.2695 55.599C83.0255 57.5218 85.2497 58.4833 87.9422 58.4833C89.8543 58.4833 91.4737 58.0909 92.8005 57.306C94.1272 56.5212 95.2881 55.4813 96.2832 54.1863L99.5903 56.7763C96.9368 60.877 92.9566 62.9274 87.6496 62.9274ZM86.9764 34.3791C84.7912 34.3791 82.9572 35.1836 81.4744 36.7925C79.9915 38.3818 79.0745 40.6185 78.7233 43.5028H94.5857V43.0908C94.4296 40.3242 93.6882 38.1856 92.3615 36.6748C91.0347 35.1443 89.2397 34.3791 86.9764 34.3791Z" fill="black"/>
<path d="M26.7257 55.8333C25.2885 56.6671 23.7685 57.084 22.1655 57.084C20.4888 57.084 19.1161 56.6301 18.0474 55.7221C16.9788 54.8142 16.4444 53.5542 16.4444 51.9422C16.4444 48.255 19.5767 46.4113 25.8413 46.4113H29.8488V52.5815C29.2039 53.9156 28.1629 54.9995 26.7257 55.8333Z" fill="black"/>
<path fill-rule="evenodd" clip-rule="evenodd" d="M49.2152 46.4827C49.2152 60.5755 38.198 72 24.6076 72C11.0172 72 0 60.5755 0 46.4827C0 32.3898 11.0172 20.9653 24.6076 20.9653C38.198 20.9653 49.2152 32.3898 49.2152 46.4827ZM29.9317 57.8345C30.116 59.3538 30.3555 60.41 30.6503 61.0029H36.0121V60.5582C35.3119 58.9277 34.9618 56.732 34.9618 53.9712V40.13C34.8881 37.0912 33.8747 34.7103 31.9216 32.9871C29.9686 31.2453 27.2693 30.3745 23.8237 30.3745C21.6496 30.3745 19.6504 30.7821 17.8263 31.5974C16.0206 32.4127 14.5835 33.5244 13.5148 34.9326C12.4646 36.3223 11.9394 37.7675 11.9394 39.2684H17.0801C17.0801 37.9528 17.6973 36.8318 18.9318 35.9054C20.1663 34.9789 21.6956 34.5157 23.5197 34.5157C25.6018 34.5157 27.1771 35.053 28.2458 36.1277C29.3145 37.1839 29.8488 38.6106 29.8488 40.4079V42.7704H24.874C20.5809 42.7704 17.2459 43.6412 14.8691 45.383C12.5106 47.1062 11.3314 49.5335 11.3314 52.6649C11.3314 55.2404 12.2711 57.3712 14.1505 59.0574C16.0483 60.725 18.4712 61.5588 21.4192 61.5588C24.7174 61.5588 27.5549 60.3173 29.9317 57.8345Z" fill="black"/>
<path fill-rule="evenodd" clip-rule="evenodd" d="M19.2168 0.453588C20.0112 0.0887909 22.3668 -0.834746 23.074 1.83889L28.1204 16.1075C28.327 16.8833 28.4694 17.5944 28.4556 18.1994C27.1974 18.0146 25.9117 17.9177 24.6076 17.9177C23.7857 17.9177 22.9775 17.9592 22.174 18.0331L13.95 6.68746C12.1546 4.59103 14.2393 3.15493 14.9877 2.7024L19.2168 0.453588Z" fill="black"/>
</svg>
